<?xml version="1.0" encoding="UTF-8"?>
<svg width="130px" height="32px" viewBox="0 0 130 32" version="1.1" xmlns="http://www.w3.org/2000/svg" xmlns:xlink="http://www.w3.org/1999/xlink">
    <!-- Generator: sketchtool 50.2 (55047) - http://www.bohemiancoding.com/sketch -->
    <title>3496BD54-5AEB-4F31-8E02-04D427787083</title>
    <desc>Created with sketchtool.</desc>
    <defs></defs>
    <g id="Page-1" stroke="none" stroke-width="1" fill="none" fill-rule="evenodd">
        <g id="Backoffice-Assets" transform="translate(-54.000000, -32.000000)">
            <g id="Group-21" transform="translate(54.000000, 32.000000)">
                <polygon id="Fill-1" fill="#E20714" points="1.01988304 27.5203181 0 31.8728795 50.566924 31.8728795 51.5864327 27.5203181"></polygon>
                <path d="M49.6462784,0.239345029 L57.9499977,0.239345029 L52.5446175,23.3047953 L44.2394012,23.3047953 L46.3270737,14.3981287 L38.360945,14.3981287 L36.2738339,23.3047953 L27.9688047,23.3047953 L33.3754947,0.239345029 L41.679214,0.239345029 L39.8531556,8.03237427 L47.8192842,8.03237427 L49.6462784,0.239345029 Z M7.50096842,0 L20.4278456,0 C34.1393778,0 28.3200561,10.2976374 24.6743018,11.0199766 C24.6743018,11.0199766 24.4459977,11.1773567 24.6172257,11.1998129 C29.9537404,11.8944561 29.8186292,23.6319064 15.5035883,23.6319064 L1.96197427,23.6319064 L7.50096842,0 Z M14.7256702,5.5094269 L18.2978807,5.5094269 C19.606138,5.5094269 21.3608982,5.72369591 20.8984889,7.47040936 C20.5015766,8.9708538 18.9915883,9.50493567 17.5270737,9.50493567 L13.789062,9.50493567 L14.7256702,5.5094269 Z M12.7897637,13.7674854 L16.7377404,13.7674854 C17.9513076,13.7674854 20.3597287,13.9106433 19.7811088,15.8727485 C19.0915181,18.2138012 16.6795415,18.1737544 15.7738105,18.1737544 L11.7569684,18.1737982 L12.7897637,13.7674854 Z" id="Fill-2" fill="#FFFFFF"></path>
                <path d="M64.15625,23 L61.78125,23 L64.1796875,11.7265625 L71.5625,11.7265625 L71.1484375,13.7421875 L66.140625,13.7421875 L65.4921875,16.6796875 L70.0625,16.6796875 L69.6640625,18.609375 L65.09375,18.609375 L64.15625,23 Z M73.8046875,23 L71.4296875,23 L73.828125,11.7265625 L76.203125,11.7265625 L73.8046875,23 Z M81.625,23 L79.25,23 L81.234375,13.7421875 L77.859375,13.7421875 L78.2734375,11.7265625 L87.3984375,11.7265625 L86.984375,13.7421875 L83.609375,13.7421875 L81.625,23 Z M89.359375,23 L87.0703125,23 L89.46875,11.7265625 L91.2734375,11.7265625 L95.015625,18.984375 L95.15625,18.984375 L96.734375,11.7265625 L99.0234375,11.7265625 L96.625,23 L94.8359375,23 L91.0625,15.796875 L90.921875,15.796875 L89.359375,23 Z M107.242188,20.984375 L106.835938,23 L99.359375,23 L101.757812,11.7265625 L109.226562,11.7265625 L108.8125,13.7421875 L103.71875,13.7421875 L103.132812,16.375 L107.945312,16.375 L107.554688,18.2421875 L102.75,18.2421875 L102.140625,20.984375 L107.242188,20.984375 Z M109.359375,19.78125 L111.640625,19.78125 C111.804688,20.75 112.765625,21.375 113.984375,21.375 C115.25,21.375 116.125,20.78125 116.125,19.8984375 C116.125,19.2421875 115.65625,18.8359375 114.4375,18.453125 L113.265625,18.0859375 C111.601562,17.5703125 110.648438,16.4609375 110.648438,15.0078125 C110.648438,12.9453125 112.539062,11.4375 115.085938,11.4375 C117.5625,11.4375 119.304688,12.875 119.375,14.9296875 L117.148438,14.9296875 C117.007812,13.984375 116.15625,13.3515625 114.992188,13.3515625 C113.890625,13.3515625 113.046875,13.9296875 113.046875,14.7265625 C113.046875,15.3515625 113.5,15.8125 114.5625,16.1484375 L115.71875,16.5078125 C117.632812,17.109375 118.5,18.046875 118.5,19.5703125 C118.5,21.8046875 116.609375,23.2890625 113.8125,23.2890625 C111.25,23.2890625 109.5,21.96875 109.359375,19.78125 Z M120,19.78125 L122.28125,19.78125 C122.445312,20.75 123.40625,21.375 124.625,21.375 C125.890625,21.375 126.765625,20.78125 126.765625,19.8984375 C126.765625,19.2421875 126.296875,18.8359375 125.078125,18.453125 L123.90625,18.0859375 C122.242188,17.5703125 121.289062,16.4609375 121.289062,15.0078125 C121.289062,12.9453125 123.179688,11.4375 125.726562,11.4375 C128.203125,11.4375 129.945312,12.875 130.015625,14.9296875 L127.789062,14.9296875 C127.648438,13.984375 126.796875,13.3515625 125.632812,13.3515625 C124.53125,13.3515625 123.6875,13.9296875 123.6875,14.7265625 C123.6875,15.3515625 124.140625,15.8125 125.203125,16.1484375 L126.359375,16.5078125 C128.273438,17.109375 129.140625,18.046875 129.140625,19.5703125 C129.140625,21.8046875 127.25,23.2890625 124.453125,23.2890625 C121.890625,23.2890625 120.140625,21.96875 120,19.78125 Z" id="FITNESS" fill="#FFFFFF"></path>
            </g>
        </g>
    </g>
</svg>