<?xml version="1.0" encoding="UTF-8"?>
<svg width="80px" height="80px" viewBox="0 0 80 80" version="1.1" xmlns="http://www.w3.org/2000/svg" xmlns:xlink="http://www.w3.org/1999/xlink">
    <!-- Generator: sketchtool 50.2 (55047) - http://www.bohemiancoding.com/sketch -->
    <title>F8F1B451-E919-4B30-AE74-1E2C90C385DE</title>
    <desc>Created with sketchtool.</desc>
    <defs></defs>
    <g id="Page-1" stroke="none" stroke-width="1" fill="none" fill-rule="evenodd">
        <g id="Backoffice-Assets" transform="translate(-136.000000, -84.000000)" fill="#E20714" fill-rule="nonzero">
            <g id="Group-17" transform="translate(136.000000, 84.000000)">
                <g id="Group-3" transform="translate(2.000000, 4.000000)">
                    <path d="M6,12.9765808 C4.34314575,12.9765808 3,14.3197265 3,15.9765808 L3,66.501171 C3,68.1580252 4.34314575,69.501171 6,69.501171 L69.8266979,69.501171 C71.4835521,69.501171 72.8266979,68.1580252 72.8266979,66.501171 L72.8266979,15.9765808 C72.8266979,14.3197265 71.4835521,12.9765808 69.8266979,12.9765808 L6,12.9765808 Z M6,10.9765808 L69.8266979,10.9765808 C72.5881216,10.9765808 74.8266979,13.215157 74.8266979,15.9765808 L74.8266979,66.501171 C74.8266979,69.2625947 72.5881216,71.501171 69.8266979,71.501171 L6,71.501171 C3.23857625,71.501171 1,69.2625947 1,66.501171 L1,15.9765808 C1,13.215157 3.23857625,10.9765808 6,10.9765808 Z M54.3723653,37.4145199 C54.3723653,36.8622352 54.8200806,36.4145199 55.3723653,36.4145199 C55.9246501,36.4145199 56.3723653,36.8622352 56.3723653,37.4145199 L56.3723653,60.5550265 C56.3723653,61.1073112 55.9246501,61.5550265 55.3723653,61.5550265 C54.8200806,61.5550265 54.3723653,61.1073112 54.3723653,60.5550265 L54.3723653,37.4145199 Z M66.8454333,47.8875878 C67.397718,47.8875878 67.8454333,48.3353031 67.8454333,48.8875878 C67.8454333,49.4398726 67.397718,49.8875878 66.8454333,49.8875878 L43.7049267,49.8875878 C43.1526419,49.8875878 42.7049267,49.4398726 42.7049267,48.8875878 C42.7049267,48.3353031 43.1526419,47.8875878 43.7049267,47.8875878 L66.8454333,47.8875878 Z M28.3334895,45.2627635 C28.3334895,41.8230275 25.8948837,39.0796253 22.9484778,39.0796253 C20.0020718,39.0796253 17.563466,41.8230275 17.563466,45.2627635 C17.563466,48.7024995 20.0020718,51.4459016 22.9484778,51.4459016 C25.8948837,51.4459016 28.3334895,48.7024995 28.3334895,45.2627635 Z M30.3334895,45.2627635 C30.3334895,49.7580351 27.0553508,53.4459016 22.9484778,53.4459016 C18.8416047,53.4459016 15.563466,49.7580351 15.563466,45.2627635 C15.563466,40.7674918 18.8416047,37.0796253 22.9484778,37.0796253 C27.0553508,37.0796253 30.3334895,40.7674918 30.3334895,45.2627635 Z M18.8053106,51.6477752 C18.8053106,51.0954904 19.2530259,50.6477752 19.8053106,50.6477752 C20.3575954,50.6477752 20.8053106,51.0954904 20.8053106,51.6477752 L20.8053106,56.6400229 L19.6841676,56.5031965 L16.2959519,56.0896923 C14.0153812,55.8104659 11.9765808,57.8322485 11.9765808,60.4922835 L11.9765808,70.0046838 C11.9765808,70.5569686 11.5288655,71.0046838 10.9765808,71.0046838 C10.424296,71.0046838 9.9765808,70.5569686 9.9765808,70.0046838 L9.9765808,60.4922835 C9.9765808,56.6812666 13.0106573,53.6725153 16.5386245,54.1044695 L18.8053106,54.3811 L18.8053106,51.6477752 Z M29.3007862,54.1043679 C32.8559424,53.6735251 35.9203747,56.6796595 35.9203747,60.4922835 L35.9203747,70.0046838 C35.9203747,70.5569686 35.4726595,71.0046838 34.9203747,71.0046838 C34.36809,71.0046838 33.9203747,70.5569686 33.9203747,70.0046838 L33.9203747,60.4922835 C33.9203747,57.8346794 31.8557839,55.8093655 29.5408219,56.0899113 L24.9926281,56.6384021 L24.9926281,51.6477752 C24.9926281,51.0954904 25.4403433,50.6477752 25.9926281,50.6477752 C26.5449128,50.6477752 26.9926281,51.0954904 26.9926281,51.6477752 L26.9926281,54.3827208 L29.3007862,54.1043679 Z M15.9672131,70.0046838 C15.9672131,70.5569686 15.5194979,71.0046838 14.9672131,71.0046838 C14.4149284,71.0046838 13.9672131,70.5569686 13.9672131,70.0046838 L13.9672131,64.0761545 C13.9672131,63.7628761 14.1140252,63.4677026 14.3638556,63.2786837 C15.2675266,62.5949762 15.8451325,61.5592603 16.1391813,60.2351113 C16.410062,59.015292 16.4167213,57.6860155 16.2622978,56.4474669 C16.2257254,56.1541388 16.1901428,55.9453292 16.1687226,55.8426796 C16.0559063,55.3020403 16.4027253,54.7723097 16.9433646,54.6594934 C17.484004,54.546677 18.0137345,54.893496 18.1265509,55.4341354 C18.1586197,55.5878157 18.2032705,55.8498394 18.2469314,56.2000209 C18.427285,57.6465419 18.4195428,59.1919924 18.0916199,60.668682 C17.7428371,62.239307 17.0570231,63.5675096 15.9672131,64.5464727 L15.9672131,70.0046838 Z M27.8063316,60.6688989 C27.4778904,59.1914269 27.4695438,57.6451905 27.6491812,56.1983298 C27.6925238,55.8492341 27.7368505,55.5880608 27.7686885,55.4348936 C27.8810861,54.894167 28.4105479,54.5469378 28.9512745,54.6593354 C29.492001,54.7717331 29.8392302,55.3011949 29.7268326,55.8419214 C29.7055712,55.9442066 29.6702488,56.1523259 29.6339423,56.4447511 C29.4801052,57.6838078 29.4872859,59.0140731 29.7586738,60.2348944 C30.0530844,61.5592817 30.6305895,62.5952158 31.5334585,63.2789551 C31.7830777,63.4679908 31.9297424,63.7630343 31.9297424,64.0761545 L31.9297424,70.0046838 C31.9297424,70.5569686 31.4820271,71.0046838 30.9297424,71.0046838 C30.3774576,71.0046838 29.9297424,70.5569686 29.9297424,70.0046838 L29.9297424,64.5462053 C28.8409272,63.5673049 28.1554318,62.2393041 27.8063316,60.6688989 Z M18.8253245,56.0043246 C18.623234,55.4903422 18.8760724,54.9098505 19.3900548,54.70776 C19.9040372,54.5056696 20.4845289,54.758508 20.6866193,55.2724904 C21.5847509,57.556734 24.152795,57.6316515 25.1471132,55.4059402 L25.2326387,55.2201856 C25.4636163,54.7185206 26.0575405,54.499085 26.5592055,54.7300626 C27.0608705,54.9610402 27.2803061,55.5549644 27.0493285,56.0566294 L26.9685004,56.2320271 C25.2525048,60.0734359 20.369227,59.9309761 18.8253245,56.0043246 Z M22.9508197,19.9555035 C22.9508197,20.5077883 22.5031044,20.9555035 21.9508197,20.9555035 C21.3985349,20.9555035 20.9508197,20.5077883 20.9508197,19.9555035 L20.9508197,1.88714722 C20.9508197,1.33486247 21.3985349,0.887147219 21.9508197,0.887147219 C22.5031044,0.887147219 22.9508197,1.33486247 22.9508197,1.88714722 L22.9508197,19.9555035 Z M54.8758782,19.9555035 C54.8758782,20.5077883 54.428163,20.9555035 53.8758782,20.9555035 C53.3235935,20.9555035 52.8758782,20.5077883 52.8758782,19.9555035 L52.8758782,1.88714722 C52.8758782,1.33486247 53.3235935,0.887147219 53.8758782,0.887147219 C54.428163,0.887147219 54.8758782,1.33486247 54.8758782,1.88714722 L54.8758782,19.9555035 Z M1.99765808,28.9367681 C1.44537333,28.9367681 0.99765808,28.4890529 0.99765808,27.9367681 C0.99765808,27.3844834 1.44537333,26.9367681 1.99765808,26.9367681 L73.170927,26.9367681 C73.7232118,26.9367681 74.170927,27.3844834 74.170927,27.9367681 C74.170927,28.4890529 73.7232118,28.9367681 73.170927,28.9367681 L1.99765808,28.9367681 Z" id="Combined-Shape"></path>
                </g>
            </g>
        </g>
    </g>
</svg>