<?xml version="1.0" encoding="UTF-8"?>
<svg width="60px" height="60px" viewBox="0 0 60 60" version="1.1" xmlns="http://www.w3.org/2000/svg" xmlns:xlink="http://www.w3.org/1999/xlink">
    <!-- Generator: sketchtool 50.2 (55047) - http://www.bohemiancoding.com/sketch -->
    <title>1E5989CE-2C11-4723-AF36-0FDD794CA5EB</title>
    <desc>Created with sketchtool.</desc>
    <defs></defs>
    <g id="Page-1" stroke="none" stroke-width="1" fill="none" fill-rule="evenodd">
        <g id="Backoffice-Assets" transform="translate(-269.000000, -103.000000)" fill="#FFFFFF" fill-rule="nonzero">
            <g id="Group-15" transform="translate(269.000000, 103.000000)">
                <g id="Group-3-Copy-2" transform="translate(5.000000, 6.000000)">
                    <path d="M4,8.65105386 C2.8954305,8.65105386 2,9.54648436 2,10.6510539 L2,44.334114 C2,45.4386835 2.8954305,46.334114 4,46.334114 L46.5511319,46.334114 C47.6557014,46.334114 48.5511319,45.4386835 48.5511319,44.334114 L48.5511319,10.6510539 C48.5511319,9.54648436 47.6557014,8.65105386 46.5511319,8.65105386 L4,8.65105386 Z M4,7.31772053 L46.5511319,7.31772053 C48.3920811,7.31772053 49.8844653,8.8101047 49.8844653,10.6510539 L49.8844653,44.334114 C49.8844653,46.1750631 48.3920811,47.6674473 46.5511319,47.6674473 L4,47.6674473 C2.15905083,47.6674473 0.666666667,46.1750631 0.666666667,44.334114 L0.666666667,10.6510539 C0.666666667,8.8101047 2.15905083,7.31772053 4,7.31772053 Z M36.2482436,24.9430133 C36.2482436,24.5748234 36.5467204,24.2763466 36.9149102,24.2763466 C37.2831001,24.2763466 37.5815769,24.5748234 37.5815769,24.9430133 L37.5815769,40.3700177 C37.5815769,40.7382075 37.2831001,41.0366843 36.9149102,41.0366843 C36.5467204,41.0366843 36.2482436,40.7382075 36.2482436,40.3700177 L36.2482436,24.9430133 Z M44.5636222,31.9250585 C44.931812,31.9250585 45.2302888,32.2235354 45.2302888,32.5917252 C45.2302888,32.959915 44.931812,33.2583919 44.5636222,33.2583919 L29.1366178,33.2583919 C28.768428,33.2583919 28.4699511,32.959915 28.4699511,32.5917252 C28.4699511,32.2235354 28.768428,31.9250585 29.1366178,31.9250585 L44.5636222,31.9250585 Z M18.888993,30.1751756 C18.888993,27.8820183 17.2632558,26.0530835 15.2989852,26.0530835 C13.3347146,26.0530835 11.7089774,27.8820183 11.7089774,30.1751756 C11.7089774,32.468333 13.3347146,34.2972678 15.2989852,34.2972678 C17.2632558,34.2972678 18.888993,32.468333 18.888993,30.1751756 Z M20.2223263,30.1751756 C20.2223263,33.1720234 18.0369005,35.6306011 15.2989852,35.6306011 C12.5610698,35.6306011 10.375644,33.1720234 10.375644,30.1751756 C10.375644,27.1783279 12.5610698,24.7197502 15.2989852,24.7197502 C18.0369005,24.7197502 20.2223263,27.1783279 20.2223263,30.1751756 Z M12.5368737,34.4318501 C12.5368737,34.0636603 12.8353506,33.7651835 13.2035404,33.7651835 C13.5717302,33.7651835 13.8702071,34.0636603 13.8702071,34.4318501 L13.8702071,37.7600152 L13.1227784,37.6687977 L10.8639679,37.3931282 C9.34358747,37.2069773 7.9843872,38.5548324 7.9843872,40.328189 L7.9843872,46.6697892 C7.9843872,47.0379791 7.68591036,47.3364559 7.31772053,47.3364559 C6.9495307,47.3364559 6.65105386,47.0379791 6.65105386,46.6697892 L6.65105386,40.328189 C6.65105386,37.787511 8.67377153,35.7816769 11.0257496,36.0696463 L12.5368737,36.2540667 L12.5368737,34.4318501 Z M19.5338574,36.0695786 C21.9039616,35.7823501 23.9469165,37.7864397 23.9469165,40.328189 L23.9469165,46.6697892 C23.9469165,47.0379791 23.6484396,47.3364559 23.2802498,47.3364559 C22.91206,47.3364559 22.6135831,47.0379791 22.6135831,46.6697892 L22.6135831,40.328189 C22.6135831,38.556453 21.2371892,37.2062437 19.6938813,37.3932742 L16.661752,37.7589347 L16.661752,34.4318501 C16.661752,34.0636603 16.9602289,33.7651835 17.3284187,33.7651835 C17.6966085,33.7651835 17.9950854,34.0636603 17.9950854,34.4318501 L17.9950854,36.2551472 L19.5338574,36.0695786 Z M10.6448087,46.6697892 C10.6448087,47.0379791 10.3463319,47.3364559 9.97814208,47.3364559 C9.60995224,47.3364559 9.31147541,47.0379791 9.31147541,46.6697892 L9.31147541,42.7174364 C9.31147541,42.5085841 9.40935013,42.3118017 9.57590371,42.1857892 C10.1783511,41.7299842 10.5634217,41.0395069 10.7594542,40.1567409 C10.9400413,39.343528 10.9444808,38.4573437 10.8415319,37.6316446 C10.8171503,37.4360925 10.7934285,37.2968862 10.7791484,37.2284531 C10.7039375,36.8680269 10.9351502,36.5148732 11.2955764,36.4396622 C11.6560027,36.3644513 12.0091564,36.595664 12.0843673,36.9560902 C12.1057465,37.0585438 12.1355136,37.2332263 12.164621,37.4666806 C12.2848567,38.4310279 12.2796952,39.4613283 12.0610799,40.445788 C11.8285581,41.4928713 11.3713487,42.3783397 10.6448087,43.0309818 L10.6448087,46.6697892 Z M18.5375544,40.4459326 C18.3185936,39.4609513 18.3130292,38.430127 18.4327875,37.4655532 C18.4616825,37.2328228 18.4912337,37.0587072 18.512459,36.9565957 C18.5873908,36.5961113 18.9403653,36.3646252 19.3008496,36.439557 C19.661334,36.5144887 19.8928202,36.8674632 19.8178884,37.2279476 C19.8037141,37.2961377 19.7801659,37.434884 19.7559615,37.6298341 C19.6534035,38.4558719 19.6581906,39.3427154 19.8391159,40.1565962 C20.0353896,41.0395211 20.420393,41.7301439 21.0223056,42.1859701 C21.1887185,42.3119939 21.2864949,42.5086895 21.2864949,42.7174364 L21.2864949,46.6697892 C21.2864949,47.0379791 20.9880181,47.3364559 20.6198283,47.3364559 C20.2516384,47.3364559 19.9531616,47.0379791 19.9531616,46.6697892 L19.9531616,43.0308036 C19.2272848,42.3782033 18.7702879,41.4928694 18.5375544,40.4459326 Z M12.5502163,37.3362164 C12.4154893,36.9935615 12.5840483,36.606567 12.9267032,36.47184 C13.2693581,36.3371131 13.6563526,36.505672 13.7910796,36.8483269 C14.3898339,38.371156 16.1018634,38.421101 16.7647422,36.9372934 L16.8217591,36.8134571 C16.9757442,36.4790137 17.3716937,36.3327233 17.706137,36.4867084 C18.0405804,36.6406935 18.1868707,37.0366429 18.0328857,37.3710863 L17.9790002,37.4880181 C16.8350032,40.0489572 13.5794847,39.9539841 12.5502163,37.3362164 Z M15.3005464,13.303669 C15.3005464,13.6718588 15.0020696,13.9703357 14.6338798,13.9703357 C14.2656899,13.9703357 13.9672131,13.6718588 13.9672131,13.303669 L13.9672131,1.25809815 C13.9672131,0.889908312 14.2656899,0.591431479 14.6338798,0.591431479 C15.0020696,0.591431479 15.3005464,0.889908312 15.3005464,1.25809815 L15.3005464,13.303669 Z M36.5839188,13.303669 C36.5839188,13.6718588 36.285442,13.9703357 35.9172521,13.9703357 C35.5490623,13.9703357 35.2505855,13.6718588 35.2505855,13.303669 L35.2505855,1.25809815 C35.2505855,0.889908312 35.5490623,0.591431479 35.9172521,0.591431479 C36.285442,0.591431479 36.5839188,0.889908312 36.5839188,1.25809815 L36.5839188,13.303669 Z M1.33177205,19.2911788 C0.96358222,19.2911788 0.665105386,18.9927019 0.665105386,18.6245121 C0.665105386,18.2563223 0.96358222,17.9578454 1.33177205,17.9578454 L48.780618,17.9578454 C49.1488078,17.9578454 49.4472847,18.2563223 49.4472847,18.6245121 C49.4472847,18.9927019 49.1488078,19.2911788 48.780618,19.2911788 L1.33177205,19.2911788 Z" id="Combined-Shape"></path>
                </g>
            </g>
        </g>
    </g>
</svg>