<?xml version="1.0" encoding="UTF-8"?>
<svg width="24px" height="24px" viewBox="0 0 24 24" version="1.1" xmlns="http://www.w3.org/2000/svg" xmlns:xlink="http://www.w3.org/1999/xlink">
    <!-- Generator: sketchtool 50.2 (55047) - http://www.bohemiancoding.com/sketch -->
    <title>F802B2AE-AE3D-49F8-9CA2-2232BB9519C8</title>
    <desc>Created with sketchtool.</desc>
    <defs></defs>
    <g id="Page-1" stroke="none" stroke-width="1" fill="none" fill-rule="evenodd">
        <g id="Backoffice-Assets" transform="translate(-54.000000, -215.000000)" fill="#232323">
            <g id="Group-10" transform="translate(54.000000, 215.000000)">
                <g id="Group-7" transform="translate(2.000000, 2.000000)">
                    <path d="M7,17.396 L9,17.396 L9,18.396 L7,18.396 L7,19.979 L6,19.979 L6,18.396 L4,18.396 L4,17.396 L6,17.396 L6,14.896 L7,14.896 L7,17.396 Z M19.4654,2.20710678 L17.3574573,4.31504949 C18.3331835,5.45235454 18.9234,6.9295736 18.9234,8.542 C18.9234,12.126 16.0074,15.042 12.4234,15.042 C8.8394,15.042 5.9234,12.126 5.9234,8.542 C5.9234,4.958 8.8394,2.042 12.4234,2.042 C14.0358264,2.042 15.5130455,2.63221646 16.6503505,3.60794271 L18.7582932,1.5 L17.0484,1.5 L17.0484,0.5 L20.4654,0.5 L20.4654,3.917 L19.4654,3.917 L19.4654,2.20710678 Z M12.4234,3.042 C9.3854,3.042 6.9234,5.504 6.9234,8.542 C6.9234,11.58 9.3854,14.042 12.4234,14.042 C15.4614,14.042 17.9234,11.58 17.9234,8.542 C17.9234,5.504 15.4614,3.042 12.4234,3.042 Z" id="Combined-Shape"></path>
                    <path d="M6.5,2.396 C10.084,2.396 13,5.312 13,8.896 C13,12.48 10.084,15.396 6.5,15.396 C2.916,15.396 0,12.48 0,8.896 C0,5.312 2.916,2.396 6.5,2.396 Z M6.5,3.396 C3.462,3.396 1,5.858 1,8.896 C1,11.934 3.462,14.396 6.5,14.396 C9.538,14.396 12,11.934 12,8.896 C12,5.858 9.538,3.396 6.5,3.396 Z" id="Combined-Shape"></path>
                </g>
            </g>
        </g>
    </g>
</svg>