<?xml version="1.0" encoding="UTF-8"?>
<svg width="24px" height="24px" viewBox="0 0 24 24" version="1.1" xmlns="http://www.w3.org/2000/svg" xmlns:xlink="http://www.w3.org/1999/xlink">
    <!-- Generator: sketchtool 50.2 (55047) - http://www.bohemiancoding.com/sketch -->
    <title>A013DB72-A2FF-489B-8DD5-0A999C68700D</title>
    <desc>Created with sketchtool.</desc>
    <defs></defs>
    <g id="Page-1" stroke="none" stroke-width="1" fill="none" fill-rule="evenodd">
        <g id="Backoffice-Assets" transform="translate(-54.000000, -257.000000)" fill="#3D83EF">
            <g id="Group-11" transform="translate(54.000000, 257.000000)">
                <path d="M17.1076923,24 L22.5603077,24 L22.5603077,0 L17.1076923,0 L17.1076923,24 Z M18.0307692,23.0769231 L21.6372308,23.0769231 L21.6372308,0.923076923 L18.0307692,0.923076923 L18.0307692,23.0769231 Z M9.08153846,24 L14.5341538,24 L14.5341538,4.00061538 L9.08153846,4.00061538 L9.08153846,24 Z M10.0046154,23.0769231 L13.6110769,23.0769231 L13.6110769,4.92369231 L10.0046154,4.92369231 L10.0046154,23.0769231 Z M1,24 L6.45261538,24 L6.45261538,7.94861538 L1,7.94861538 L1,24 Z M1.92307692,23.0769231 L5.52953846,23.0769231 L5.52953846,8.87169231 L1.92307692,8.87169231 L1.92307692,23.0769231 Z" id="Fill-1"></path>
            </g>
        </g>
    </g>
</svg>