<?xml version="1.0" encoding="UTF-8"?>
<svg width="24px" height="24px" viewBox="0 0 24 24" version="1.1" xmlns="http://www.w3.org/2000/svg" xmlns:xlink="http://www.w3.org/1999/xlink">
    <!-- Generator: sketchtool 50.2 (55047) - http://www.bohemiancoding.com/sketch -->
    <title>A90148E3-586B-4CB2-A1D0-84E2F6622523</title>
    <desc>Created with sketchtool.</desc>
    <defs></defs>
    <g id="Page-1" stroke="none" stroke-width="1" fill="none" fill-rule="evenodd">
        <g id="Backoffice-Assets" transform="translate(-54.000000, -136.000000)" fill="#232323" fill-rule="nonzero">
            <g id="Group-8" transform="translate(54.000000, 136.000000)">
                <g id="Group-4" transform="translate(6.000000, 2.000000)">
                    <path d="M9.06567061,18.8879367 C9.86305789,18.8879367 10.5101754,18.2408192 10.5101754,17.443432 L10.5101754,2.55774552 C10.5101754,1.75931231 9.86318934,1.11206327 9.06567061,1.11206327 L2.55656804,1.11206327 C1.75904931,1.11206327 1.11206327,1.75931231 1.11206327,2.55774552 L1.11206327,17.443432 C1.11206327,18.2408192 1.75918076,18.8879367 2.55656804,18.8879367 L9.06567061,18.8879367 Z M9.06567061,20 L2.55656804,20 C1.14500518,20 0,18.8549948 0,17.443432 L0,2.55774552 C0,1.14523788 1.14477252,0 2.55656804,0 L9.06567061,0 C10.4774661,0 11.6222386,1.14523788 11.6222386,2.55774552 L11.6222386,17.443432 C11.6222386,18.8549948 10.4772335,20 9.06567061,20 Z M0.802595687,3.49339631 C0.495507894,3.49339631 0.246564052,3.24445246 0.246564052,2.93736467 C0.246564052,2.63027688 0.495507894,2.38133304 0.802595687,2.38133304 L11.0925825,2.38133304 C11.3996703,2.38133304 11.6486142,2.63027688 11.6486142,2.93736467 C11.6486142,3.24445246 11.3996703,3.49339631 11.0925825,3.49339631 L0.802595687,3.49339631 Z M0.802595687,15.3170492 C0.495507894,15.3170492 0.246564052,15.0681054 0.246564052,14.7610176 C0.246564052,14.4539298 0.495507894,14.204986 0.802595687,14.204986 L11.0925825,14.204986 C11.3996703,14.204986 11.6486142,14.4539298 11.6486142,14.7610176 C11.6486142,15.0681054 11.3996703,15.3170492 11.0925825,15.3170492 L0.802595687,15.3170492 Z M6.55882353,17.0294118 C6.55882353,17.3216471 6.32164706,17.5588235 6.02941176,17.5588235 C5.73717647,17.5588235 5.5,17.3216471 5.5,17.0294118 C5.5,16.7371765 5.73717647,16.5 6.02941176,16.5 C6.32164706,16.5 6.55882353,16.7371765 6.55882353,17.0294118 Z" id="Combined-Shape"></path>
                </g>
            </g>
        </g>
    </g>
</svg>