<?xml version="1.0" encoding="UTF-8"?>
<svg width="24px" height="24px" viewBox="0 0 24 24" version="1.1" xmlns="http://www.w3.org/2000/svg" xmlns:xlink="http://www.w3.org/1999/xlink">
    <!-- Generator: sketchtool 50.2 (55047) - http://www.bohemiancoding.com/sketch -->
    <title>AE652DDD-CC1A-4FC6-97D9-6CA43697F8E2</title>
    <desc>Created with sketchtool.</desc>
    <defs></defs>
    <g id="Page-1" stroke="none" stroke-width="1" fill="none" fill-rule="evenodd">
        <g id="Backoffice-Assets" transform="translate(-288.000000, -276.000000)" fill="#FFFFFF">
            <g id="Group-20-Copy" transform="translate(288.000000, 276.000000)">
                <path d="M21.8664219,14.7433451 L12.0468025,14.7433451 L12.0468025,12.6230562 L13.7002736,12.6230562 L13.7002736,13.6806705 L14.9653624,13.6806705 L14.9653624,12.6230562 L18.9972005,12.6230562 L18.9972005,13.6806705 L20.2622893,13.6806705 L20.2622893,12.6230562 L21.8664219,12.6230562 L21.8664219,14.7433451 Z M12.0468025,22.718465 L21.8664219,22.718465 L21.8664219,16.0084339 L12.0468025,16.0084339 L12.0468025,22.718465 Z M20.2622893,11.3579674 L20.2622893,9.72853302 L18.9972005,9.72853302 L18.9972005,11.3579674 L14.9653624,11.3579674 L14.9653624,9.72853302 L13.7002736,9.72853302 L13.7002736,11.3579674 L10.7817137,11.3579674 L10.7817137,22.7298508 L2.27905173,22.7349112 L2.26513575,19.2495915 C2.25754522,17.4987086 3.02165887,15.8452375 4.41705183,14.5940646 C5.83268622,13.3239154 7.72272892,12.6217912 9.74054559,12.6129355 L9.73548523,11.3478467 C7.4077218,11.3579674 5.21911815,12.1752148 3.57323759,13.6528385 C1.90585053,15.1481735 0.992456398,17.1381582 1.00004693,19.2533867 L1.01902326,24 L10.9031622,23.9949396 L10.9031622,23.9835538 L23.1315107,23.9835538 L23.1315107,11.3579674 L20.2622893,11.3579674 Z M20.2357224,17.6530494 L19.332449,16.7687523 L16.2911755,19.8732803 L14.9780133,18.5335512 L14.0747399,19.4191134 L16.2911755,21.6810922 L20.2357224,17.6530494 Z M9.46349114,1.26508882 C11.5508877,1.26508882 13.249902,2.9641031 13.249902,5.05149966 C13.249902,7.1401613 11.5508877,8.83917558 9.46349114,8.83917558 C7.37482949,8.83917558 5.6770803,7.1401613 5.6770803,5.05149966 C5.6770803,2.9641031 7.37482949,1.26508882 9.46349114,1.26508882 Z M9.46349114,10.1042644 C12.2479516,10.1042644 14.5149908,7.83722524 14.5149908,5.05149966 C14.5149908,2.26703917 12.2479516,0 9.46349114,0 C6.67776555,0 4.41199148,2.26703917 4.41199148,5.05149966 C4.41199148,7.83722524 6.67776555,10.1042644 9.46349114,10.1042644 Z" id="Fill-1"></path>
            </g>
        </g>
    </g>
</svg>