<?xml version="1.0" encoding="UTF-8"?>
<svg width="24px" height="24px" viewBox="0 0 24 24" version="1.1" xmlns="http://www.w3.org/2000/svg" xmlns:xlink="http://www.w3.org/1999/xlink">
    <!-- Generator: sketchtool 50.2 (55047) - http://www.bohemiancoding.com/sketch -->
    <title>0E4E73B1-934B-4C08-BD12-46197F04BC13</title>
    <desc>Created with sketchtool.</desc>
    <defs></defs>
    <g id="Page-1" stroke="none" stroke-width="1" fill="none" fill-rule="evenodd">
        <g id="Backoffice-Assets" transform="translate(-327.000000, -276.000000)" fill="#232323">
            <g id="Group-20" transform="translate(337.000000, 279.000000)">
                <path d="M1.8,3.6 C0.80588745,3.6 0,2.79411255 0,1.8 C0,0.80588745 0.80588745,0 1.8,0 C2.79411255,0 3.6,0.80588745 3.6,1.8 C3.6,2.79411255 2.79411255,3.6 1.8,3.6 Z M1.8,10.8 C0.80588745,10.8 0,9.99411255 0,9 C0,8.00588745 0.80588745,7.2 1.8,7.2 C2.79411255,7.2 3.6,8.00588745 3.6,9 C3.6,9.99411255 2.79411255,10.8 1.8,10.8 Z M1.8,18 C0.80588745,18 0,17.1941125 0,16.2 C0,15.2058875 0.80588745,14.4 1.8,14.4 C2.79411255,14.4 3.6,15.2058875 3.6,16.2 C3.6,17.1941125 2.79411255,18 1.8,18 Z" id="Combined-Shape"></path>
            </g>
        </g>
    </g>
</svg>