<?xml version="1.0" encoding="UTF-8"?>
<svg width="24px" height="24px" viewBox="0 0 24 24" version="1.1" xmlns="http://www.w3.org/2000/svg" xmlns:xlink="http://www.w3.org/1999/xlink">
    <!-- Generator: sketchtool 50.2 (55047) - http://www.bohemiancoding.com/sketch -->
    <title>E301B27E-4DFF-4F39-8FAB-4A6EE6F4A64F</title>
    <desc>Created with sketchtool.</desc>
    <defs></defs>
    <g id="Page-1" stroke="none" stroke-width="1" fill="none" fill-rule="evenodd">
        <g id="Backoffice-Assets" transform="translate(-54.000000, -179.000000)" fill="#232323" fill-rule="nonzero">
            <g id="Group-9" transform="translate(54.000000, 179.000000)">
                <g id="Group-5" transform="translate(3.000000, 2.000000)">
                    <path d="M13.9655,2.9585 L13.9655,3.4585 L4.0345,3.4585 C2.63751304,3.4585 1.5005,4.59577175 1.5005,5.9935 L1.5005,16.9655 C1.5005,18.3625989 2.63788355,19.5005 4.0345,19.5005 L13.9655,19.5005 C15.3623576,19.5005 16.5005,18.3623576 16.5005,16.9655 L16.5005,5.9935 C16.5005,4.59601296 15.3627283,3.4585 13.9655,3.4585 L13.9655,2.9585 Z M13.9655,2.9585 L13.9655,2.4585 C15.9149621,2.4585 17.5005,4.04367728 17.5005,5.9935 L17.5005,16.9655 C17.5005,18.9146424 15.9146424,20.5005 13.9655,20.5005 L4.0345,20.5005 C2.08549693,20.5005 0.5005,18.9147818 0.5005,16.9655 L0.5005,5.9935 C0.5005,4.04353792 2.08517736,2.4585 4.0345,2.4585 L13.9655,2.4585 L13.9655,2.9585 Z M5.5,5 L4.5,5 L4.5,-4.54303262e-13 L5.5,-4.54303262e-13 L5.5,5 Z M13.5,5 L12.5,5 L12.5,-4.54303262e-13 L13.5,-4.54303262e-13 L13.5,5 Z M1.4582,8 L1.4582,7 L17.5,7 L17.5,8 L1.4582,8 Z M4.0002,10.9585 L4.0002,9.9585 L14.0002,9.9585 L14.0002,10.9585 L4.0002,10.9585 Z M4.0002,13 L4.0002,12 L14.0002,12 L14.0002,13 L4.0002,13 Z M4.0002,15.0415 L4.0002,14.0415 L14.0002,14.0415 L14.0002,15.0415 L4.0002,15.0415 Z M4.0002,17.0835 L4.0002,16.0835 L14.0002,16.0835 L14.0002,17.0835 L4.0002,17.0835 Z" id="Combined-Shape"></path>
                </g>
            </g>
        </g>
    </g>
</svg>