<?xml version="1.0" encoding="UTF-8"?>
<svg width="24px" height="24px" viewBox="0 0 24 24" version="1.1" xmlns="http://www.w3.org/2000/svg" xmlns:xlink="http://www.w3.org/1999/xlink">
    <!-- Generator: sketchtool 50.2 (55047) - http://www.bohemiancoding.com/sketch -->
    <title>DF4EA76D-5AEA-4101-8E30-9C2B821D7E3F</title>
    <desc>Created with sketchtool.</desc>
    <defs></defs>
    <g id="Page-1" stroke="none" stroke-width="1" fill="none" fill-rule="evenodd">
        <g id="Backoffice-Assets" transform="translate(-54.000000, -86.000000)" fill="#3D83EF" fill-rule="nonzero">
            <g id="Group-6" transform="translate(54.000000, 86.000000)">
                <g id="Group" transform="translate(3.000000, 3.000000)">
                    <path d="M12.4365534,7.18844661 C12.4365534,4.40373136 10.1792686,2.14644661 7.39455339,2.14644661 C4.61070911,2.14644661 2.35355339,4.40386041 2.35355339,7.18844661 C2.35355339,9.97240375 4.61108,12.2304466 7.39455339,12.2304466 C10.1788977,12.2304466 12.4365534,9.97253282 12.4365534,7.18844661 Z M13.0312241,11.4099038 L17.3526602,15.7313398 L15.9384466,17.1455534 L11.6171588,12.8242656 C10.4406308,13.7072435 8.9786439,14.2304466 7.39455339,14.2304466 C3.50640812,14.2304466 0.353553391,11.0768709 0.353553391,7.18844661 C0.353553391,3.29934209 3.50608842,0.146446609 7.39455339,0.146446609 C11.2838381,0.146446609 14.4365534,3.29916186 14.4365534,7.18844661 C14.4365534,8.77194448 13.9137045,10.233527 13.0312241,11.4099038 Z" id="Combined-Shape"></path>
                </g>
            </g>
        </g>
    </g>
</svg>