<?xml version="1.0" encoding="UTF-8"?>
<svg width="24px" height="24px" viewBox="0 0 24 24" version="1.1" xmlns="http://www.w3.org/2000/svg" xmlns:xlink="http://www.w3.org/1999/xlink">
    <!-- Generator: sketchtool 50.2 (55047) - http://www.bohemiancoding.com/sketch -->
    <title>E065F80B-8B8B-4B4B-9C91-2467FE2D9EE6svg/</title>
    <desc>Created with sketchtool.</desc>
    <defs></defs>
    <g id="Page-1" stroke="none" stroke-width="1" fill="none" fill-rule="evenodd">
        <g id="Select-Template" transform="translate(-141.000000, -368.000000)" fill="#000000">
            <g id="Group-2" transform="translate(27.000000, 75.000000)">
                <g transform="translate(15.000000, 16.000000)" id="Group-Copy-3">
                    <g transform="translate(0.000000, 255.000000)">
                        <g id="Group-7" transform="translate(99.000000, 22.000000)">
                            <path d="M19.427,9.125 L18.523,8.221 L17.497,9.247 C18.473,10.518 19.06,12.102 19.06,13.824 C19.06,17.976 15.682,21.354 11.53,21.354 C7.378,21.354 4,17.976 4,13.824 C4,9.84 7.111,6.578 11.03,6.318 L11.03,5 L8.614,5 L8.614,4 L14.446,4 L14.446,5 L12.03,5 L12.03,6.318 C13.901,6.442 15.589,7.244 16.84,8.49 L17.816,7.514 L17.01,6.708 L17.717,6.001 L20.134,8.418 L19.427,9.125 Z M11.53,20.354 C15.131,20.354 18.06,17.424 18.06,13.824 C18.06,10.223 15.131,7.293 11.53,7.293 C7.929,7.293 5,10.223 5,13.824 C5,17.424 7.929,20.354 11.53,20.354 Z M12.1139,9.7227 L12.1139,13.3237 L14.5439,13.3237 L14.5439,14.3237 L11.1139,14.3237 L11.1139,9.7227 L12.1139,9.7227 Z" id="Combined-Shape"></path>
                        </g>
                    </g>
                </g>
            </g>
        </g>
    </g>
</svg>