<?xml version="1.0" encoding="UTF-8"?>
<svg width="80px" height="80px" viewBox="0 0 80 80" version="1.1" xmlns="http://www.w3.org/2000/svg" xmlns:xlink="http://www.w3.org/1999/xlink">
    <!-- Generator: sketchtool 50.2 (55047) - http://www.bohemiancoding.com/sketch -->
    <title>AAB171CE-95DB-4B0E-9253-23A47EDB21E9</title>
    <desc>Created with sketchtool.</desc>
    <defs></defs>
    <g id="Page-1" stroke="none" stroke-width="1" fill="none" fill-rule="evenodd">
        <g id="Backoffice-Assets" transform="translate(-137.000000, -267.000000)" fill="#E20714" fill-rule="nonzero">
            <g id="Group-19" transform="translate(137.000000, 267.000000)">
                <g id="Group-2-Copy" transform="translate(0.000000, 9.000000)">
                    <path d="M0.611435896,5 C0.611435896,2.23857625 2.85001215,4.4408921e-16 5.6114359,0 L25.5165363,4.4408921e-16 C27.8793055,0 30.0826309,1.19194888 31.3755421,3.16958864 L35.1560012,8.9521874 C36.0795092,10.3647872 37.6533131,11.2161793 39.3410053,11.2161793 L74.1399994,11.2161793 C76.9014231,11.2161793 79.1399994,13.4547555 79.1399994,16.2161793 L79.1399994,63 L0.611435896,63 L0.611435896,5 Z M77.1399994,16.2161793 C77.1399994,14.559325 75.7968536,13.2161793 74.1399994,13.2161793 L39.3410053,13.2161793 C36.9782362,13.2161793 34.7749107,12.0242304 33.4819996,10.0465906 L29.7015404,4.26399188 C28.7780325,2.85139206 27.2042285,2 25.5165363,2 L5.6114359,2 C3.95458165,2 2.6114359,3.34314575 2.6114359,5 L2.6114359,61 L77.1399994,61 L77.1399994,16.2161793 Z M27,27.9180328 C25.3431458,27.9180328 24,29.2611785 24,30.9180328 L24,50.7540984 C24,52.4109526 25.3431458,53.7540984 27,53.7540984 L53.3934426,53.7540984 C55.0502969,53.7540984 56.3934426,52.4109526 56.3934426,50.7540984 L56.3934426,30.9180328 C56.3934426,29.2611785 55.0502969,27.9180328 53.3934426,27.9180328 L27,27.9180328 Z M27,25.9180328 L53.3934426,25.9180328 C56.1548664,25.9180328 58.3934426,28.156609 58.3934426,30.9180328 L58.3934426,50.7540984 C58.3934426,53.5155221 56.1548664,55.7540984 53.3934426,55.7540984 L27,55.7540984 C24.2385763,55.7540984 22,53.5155221 22,50.7540984 L22,30.9180328 C22,28.156609 24.2385763,25.9180328 27,25.9180328 Z M41.96734,41.0098936 C41.96734,39.3729866 40.8275751,38.0907648 39.48367,38.0907648 C38.1397649,38.0907648 37,39.3729866 37,41.0098936 C37,42.6468006 38.1397649,43.9290223 39.48367,43.9290223 C40.8275751,43.9290223 41.96734,42.6468006 41.96734,41.0098936 Z M43.96734,41.0098936 C43.96734,43.7023362 41.9880422,45.9290223 39.48367,45.9290223 C36.9792977,45.9290223 35,43.7023362 35,41.0098936 C35,38.3174509 36.9792977,36.0907648 39.48367,36.0907648 C41.9880422,36.0907648 43.96734,38.3174509 43.96734,41.0098936 Z M47.4736842,51 L47.4736842,53.8899752 C47.4736842,54.4422599 47.025969,54.8899752 46.4736842,54.8899752 C45.9213995,54.8899752 45.4736842,54.4422599 45.4736842,53.8899752 L45.4736842,51 C45.4736842,49.1691015 44.3374368,48.3743526 41.5138682,48.4990266 L40.4697565,48.5451291 L40.4697565,45.0810547 C40.4697565,44.5287699 40.9174717,44.0810547 41.4697565,44.0810547 C42.0220412,44.0810547 42.4697565,44.5287699 42.4697565,45.0810547 L42.4697565,46.4983772 C45.669231,46.6353387 47.4736842,48.1647879 47.4736842,51 Z M32,50.9189453 C32,48.0837332 33.8044532,46.554284 37.0039278,46.4173225 L37.0039278,45 C37.0039278,44.4477153 37.451643,44 38.0039278,44 C38.5562125,44 39.0039278,44.4477153 39.0039278,45 L39.0039278,48.4640744 L37.959816,48.4179719 C35.1362475,48.2932979 34,49.0880468 34,50.9189453 L34,53.8089205 C34,54.3612052 33.5522847,54.8089205 33,54.8089205 C32.4477153,54.8089205 32,54.3612052 32,53.8089205 L32,50.9189453 Z M33.3278689,30.3442623 C33.3278689,30.896547 32.8801536,31.3442623 32.3278689,31.3442623 C31.7755841,31.3442623 31.3278689,30.896547 31.3278689,30.3442623 L31.3278689,21.4373261 C31.3278689,20.8850413 31.7755841,20.4373261 32.3278689,20.4373261 C32.8801536,20.4373261 33.3278689,20.8850413 33.3278689,21.4373261 L33.3278689,30.3442623 Z M49.0655738,30.3442623 C49.0655738,30.896547 48.6178585,31.3442623 48.0655738,31.3442623 C47.513289,31.3442623 47.0655738,30.896547 47.0655738,30.3442623 L47.0655738,21.4373261 C47.0655738,20.8850413 47.513289,20.4373261 48.0655738,20.4373261 C48.6178585,20.4373261 49.0655738,20.8850413 49.0655738,21.4373261 L49.0655738,30.3442623 Z M22.9923496,35.2786885 C22.4400649,35.2786885 21.9923496,34.8309733 21.9923496,34.2786885 C21.9923496,33.7264038 22.4400649,33.2786885 22.9923496,33.2786885 L57.0003461,33.2786885 C57.5526308,33.2786885 58.0003461,33.7264038 58.0003461,34.2786885 C58.0003461,34.8309733 57.5526308,35.2786885 57.0003461,35.2786885 L22.9923496,35.2786885 Z M31,5 L31,3 L73.1399994,3 C76.4537079,3 79.1399994,5.6862915 79.1399994,9 L79.1399994,26.0227155 L77.1399994,26.0227155 L77.1399994,9 C77.1399994,6.790861 75.3491384,5 73.1399994,5 L31,5 Z" id="Combined-Shape"></path>
                </g>
            </g>
        </g>
    </g>
</svg>