<?xml version="1.0" encoding="UTF-8"?>
<svg width="80px" height="80px" viewBox="0 0 80 80" version="1.1" xmlns="http://www.w3.org/2000/svg" xmlns:xlink="http://www.w3.org/1999/xlink">
    <!-- Generator: sketchtool 50.2 (55047) - http://www.bohemiancoding.com/sketch -->
    <title>E3949CC3-A15D-4F29-B651-332F36695D12</title>
    <desc>Created with sketchtool.</desc>
    <defs></defs>
    <g id="Page-1" stroke="none" stroke-width="1" fill="none" fill-rule="evenodd">
        <g id="Backoffice-Assets" transform="translate(-137.000000, -175.000000)" fill="#E20714" fill-rule="nonzero">
            <g id="Group-18" transform="translate(137.000000, 175.000000)">
                <g id="Group-2" transform="translate(0.000000, 9.000000)">
                    <path d="M0.611435896,5 C0.611435896,2.23857625 2.85001215,4.4408921e-16 5.6114359,0 L25.5165363,4.4408921e-16 C27.8793055,0 30.0826309,1.19194888 31.3755421,3.16958864 L35.1560012,8.9521874 C36.0795092,10.3647872 37.6533131,11.2161793 39.3410053,11.2161793 L74.1399994,11.2161793 C76.9014231,11.2161793 79.1399994,13.4547555 79.1399994,16.2161793 L79.1399994,63 L0.611435896,63 L0.611435896,5 Z M77.1399994,16.2161793 C77.1399994,14.559325 75.7968536,13.2161793 74.1399994,13.2161793 L39.3410053,13.2161793 C36.9782362,13.2161793 34.7749107,12.0242304 33.4819996,10.0465906 L29.7015404,4.26399188 C28.7780325,2.85139206 27.2042285,2 25.5165363,2 L5.6114359,2 C3.95458165,2 2.6114359,3.34314575 2.6114359,5 L2.6114359,61 L77.1399994,61 L77.1399994,16.2161793 Z M27,25.9180328 C25.3431458,25.9180328 24,27.2611785 24,28.9180328 L24,48.7540984 C24,50.4109526 25.3431458,51.7540984 27,51.7540984 L53.3934426,51.7540984 C55.0502969,51.7540984 56.3934426,50.4109526 56.3934426,48.7540984 L56.3934426,28.9180328 C56.3934426,27.2611785 55.0502969,25.9180328 53.3934426,25.9180328 L27,25.9180328 Z M27,23.9180328 L53.3934426,23.9180328 C56.1548664,23.9180328 58.3934426,26.156609 58.3934426,28.9180328 L58.3934426,48.7540984 C58.3934426,51.5155221 56.1548664,53.7540984 53.3934426,53.7540984 L27,53.7540984 C24.2385763,53.7540984 22,51.5155221 22,48.7540984 L22,28.9180328 C22,26.156609 24.2385763,23.9180328 27,23.9180328 Z M33.3278689,28.3442623 C33.3278689,28.896547 32.8801536,29.3442623 32.3278689,29.3442623 C31.7755841,29.3442623 31.3278689,28.896547 31.3278689,28.3442623 L31.3278689,19.4373261 C31.3278689,18.8850413 31.7755841,18.4373261 32.3278689,18.4373261 C32.8801536,18.4373261 33.3278689,18.8850413 33.3278689,19.4373261 L33.3278689,28.3442623 Z M49.0655738,28.3442623 C49.0655738,28.896547 48.6178585,29.3442623 48.0655738,29.3442623 C47.513289,29.3442623 47.0655738,28.896547 47.0655738,28.3442623 L47.0655738,19.4373261 C47.0655738,18.8850413 47.513289,18.4373261 48.0655738,18.4373261 C48.6178585,18.4373261 49.0655738,18.8850413 49.0655738,19.4373261 L49.0655738,28.3442623 Z M23.7423105,33.2786885 C23.1900257,33.2786885 22.7423105,32.8309733 22.7423105,32.2786885 C22.7423105,31.7264038 23.1900257,31.2786885 23.7423105,31.2786885 L57.5772175,31.2786885 C58.1295023,31.2786885 58.5772175,31.7264038 58.5772175,32.2786885 C58.5772175,32.8309733 58.1295023,33.2786885 57.5772175,33.2786885 L23.7423105,33.2786885 Z M31.4672131,38.647541 C30.9149284,38.647541 30.4672131,38.1998257 30.4672131,37.647541 C30.4672131,37.0952562 30.9149284,36.647541 31.4672131,36.647541 L49.2910774,36.647541 C49.8433621,36.647541 50.2910774,37.0952562 50.2910774,37.647541 C50.2910774,38.1998257 49.8433621,38.647541 49.2910774,38.647541 L31.4672131,38.647541 Z M31.4672131,43.2540984 C30.9149284,43.2540984 30.4672131,42.8063831 30.4672131,42.2540984 C30.4672131,41.7018136 30.9149284,41.2540984 31.4672131,41.2540984 L49.2910774,41.2540984 C49.8433621,41.2540984 50.2910774,41.7018136 50.2910774,42.2540984 C50.2910774,42.8063831 49.8433621,43.2540984 49.2910774,43.2540984 L31.4672131,43.2540984 Z M31.2868852,47.8606557 C30.7346005,47.8606557 30.2868852,47.4129405 30.2868852,46.8606557 C30.2868852,46.308371 30.7346005,45.8606557 31.2868852,45.8606557 L49.1107495,45.8606557 C49.6630343,45.8606557 50.1107495,46.308371 50.1107495,46.8606557 C50.1107495,47.4129405 49.6630343,47.8606557 49.1107495,47.8606557 L31.2868852,47.8606557 Z M31,5 L31,3 L73.1399994,3 C76.4537079,3 79.1399994,5.6862915 79.1399994,9 L79.1399994,26.0227155 L77.1399994,26.0227155 L77.1399994,9 C77.1399994,6.790861 75.3491384,5 73.1399994,5 L31,5 Z" id="Combined-Shape"></path>
                </g>
            </g>
        </g>
    </g>
</svg>