<?xml version="1.0" encoding="UTF-8"?>
<svg width="60px" height="60px" viewBox="0 0 60 60" version="1.1" xmlns="http://www.w3.org/2000/svg" xmlns:xlink="http://www.w3.org/1999/xlink">
    <!-- Generator: sketchtool 50.2 (55047) - http://www.bohemiancoding.com/sketch -->
    <title>06C6C8F8-4BF7-43B6-8A6D-7F71A0027890</title>
    <desc>Created with sketchtool.</desc>
    <defs></defs>
    <g id="Page-1" stroke="none" stroke-width="1" fill="none" fill-rule="evenodd">
        <g id="Backoffice-Assets" transform="translate(-342.000000, -184.000000)" fill="#232323" fill-rule="nonzero">
            <g id="Group-14" transform="translate(342.000000, 184.000000)">
                <g id="Group-2-Copy-3" transform="translate(6.000000, 11.000000)">
                    <path d="M0.366861538,3 C0.366861538,1.34314575 1.71000729,2.66453526e-16 3.36686154,0 L15.3099218,2.66453526e-16 C16.7275833,0 18.0495786,0.715169329 18.8253252,1.90175318 L21.0936007,5.37131244 C21.6477055,6.21887234 22.5919878,6.72970757 23.6046032,6.72970757 L44.4839996,6.72970757 C46.1408539,6.72970757 47.4839996,8.07285332 47.4839996,9.72970757 L47.4839996,37.8 L0.366861538,37.8 L0.366861538,3 Z M46.2839996,9.72970757 C46.2839996,8.73559502 45.4781122,7.92970757 44.4839996,7.92970757 L23.6046032,7.92970757 C22.1869417,7.92970757 20.8649464,7.21453824 20.0891997,6.02795439 L17.8209242,2.55839513 C17.2668195,1.71083524 16.3225371,1.2 15.3099218,1.2 L3.36686154,1.2 C2.37274899,1.2 1.56686154,2.00588745 1.56686154,3 L1.56686154,36.6 L46.2839996,36.6 L46.2839996,9.72970757 Z M16.2,15.5508197 C15.2058875,15.5508197 14.4,16.3567071 14.4,17.3508197 L14.4,29.252459 C14.4,30.2465716 15.2058875,31.052459 16.2,31.052459 L32.0360656,31.052459 C33.0301781,31.052459 33.8360656,30.2465716 33.8360656,29.252459 L33.8360656,17.3508197 C33.8360656,16.3567071 33.0301781,15.5508197 32.0360656,15.5508197 L16.2,15.5508197 Z M16.2,14.3508197 L32.0360656,14.3508197 C33.6929198,14.3508197 35.0360656,15.6939654 35.0360656,17.3508197 L35.0360656,29.252459 C35.0360656,30.9093133 33.6929198,32.252459 32.0360656,32.252459 L16.2,32.252459 C14.5431458,32.252459 13.2,30.9093133 13.2,29.252459 L13.2,17.3508197 C13.2,15.6939654 14.5431458,14.3508197 16.2,14.3508197 Z M19.9967213,17.0065574 C19.9967213,17.3379282 19.7280922,17.6065574 19.3967213,17.6065574 C19.0653505,17.6065574 18.7967213,17.3379282 18.7967213,17.0065574 L18.7967213,11.6623957 C18.7967213,11.3310248 19.0653505,11.0623957 19.3967213,11.0623957 C19.7280922,11.0623957 19.9967213,11.3310248 19.9967213,11.6623957 L19.9967213,17.0065574 Z M29.4393443,17.0065574 C29.4393443,17.3379282 29.1707151,17.6065574 28.8393443,17.6065574 C28.5079734,17.6065574 28.2393443,17.3379282 28.2393443,17.0065574 L28.2393443,11.6623957 C28.2393443,11.3310248 28.5079734,11.0623957 28.8393443,11.0623957 C29.1707151,11.0623957 29.4393443,11.3310248 29.4393443,11.6623957 L29.4393443,17.0065574 Z M14.2453863,19.9672131 C13.9140154,19.9672131 13.6453863,19.698584 13.6453863,19.3672131 C13.6453863,19.0358423 13.9140154,18.7672131 14.2453863,18.7672131 L34.5463305,18.7672131 C34.8777014,18.7672131 35.1463305,19.0358423 35.1463305,19.3672131 C35.1463305,19.698584 34.8777014,19.9672131 34.5463305,19.9672131 L14.2453863,19.9672131 Z M18.8803279,23.1885246 C18.548957,23.1885246 18.2803279,22.9198954 18.2803279,22.5885246 C18.2803279,22.2571537 18.548957,21.9885246 18.8803279,21.9885246 L29.5746464,21.9885246 C29.9060173,21.9885246 30.1746464,22.2571537 30.1746464,22.5885246 C30.1746464,22.9198954 29.9060173,23.1885246 29.5746464,23.1885246 L18.8803279,23.1885246 Z M18.8803279,25.952459 C18.548957,25.952459 18.2803279,25.6838299 18.2803279,25.352459 C18.2803279,25.0210882 18.548957,24.752459 18.8803279,24.752459 L29.5746464,24.752459 C29.9060173,24.752459 30.1746464,25.0210882 30.1746464,25.352459 C30.1746464,25.6838299 29.9060173,25.952459 29.5746464,25.952459 L18.8803279,25.952459 Z M18.7721311,28.7163934 C18.4407603,28.7163934 18.1721311,28.4477643 18.1721311,28.1163934 C18.1721311,27.7850226 18.4407603,27.5163934 18.7721311,27.5163934 L29.4664497,27.5163934 C29.7978206,27.5163934 30.0664497,27.7850226 30.0664497,28.1163934 C30.0664497,28.4477643 29.7978206,28.7163934 29.4664497,28.7163934 L18.7721311,28.7163934 Z M18.6,3 L18.6,1.8 L43.8839996,1.8 C45.8722247,1.8 47.4839996,3.4117749 47.4839996,5.4 L47.4839996,15.6136293 L46.2839996,15.6136293 L46.2839996,5.4 C46.2839996,4.0745166 45.209483,3 43.8839996,3 L18.6,3 Z" id="Combined-Shape"></path>
                </g>
            </g>
        </g>
    </g>
</svg>